<svg width="307" height="280" viewBox="0 0 307 280" fill="none" xmlns="http://www.w3.org/2000/svg">
<path d="M258.349 141.079C258.349 203.563 207.696 254.217 145.211 254.217C82.7265 254.217 32.0726 203.563 32.0726 141.079C32.0726 78.5941 82.7265 27.9402 145.211 27.9402C207.696 27.9402 258.349 78.5941 258.349 141.079Z" stroke="#2E77E6" stroke-width="8.731" stroke-miterlimit="10" stroke-dasharray="13.1 13.1"/>
<path d="M173.857 133.652C173.976 132.769 174.06 131.875 174.06 130.959C174.06 119.946 165.131 111.019 154.119 111.019C145.858 111.019 138.77 116.043 135.744 123.203C133.282 121.011 130.048 119.668 126.492 119.668C118.796 119.668 112.558 125.906 112.558 133.601H109.958C102.559 133.601 96.5045 139.655 96.5045 147.055V147.055C96.5045 154.454 102.559 160.508 109.958 160.508H172.864C180.263 160.508 186.317 154.454 186.317 147.055V147.055C186.317 139.99 180.795 134.166 173.857 133.652Z" fill="white"/>
<path d="M186.23 280H102.008C99.1735 280 96.8757 277.702 96.8757 274.868V204.21C96.8757 201.376 99.1735 199.078 102.008 199.078H186.23C189.064 199.078 191.361 201.376 191.361 204.21V274.868C191.361 277.702 189.064 280 186.23 280Z" fill="#5896FA"/>
<path d="M172.725 247.94H115.764C113.9 247.94 112.375 246.413 112.375 244.551C112.375 242.687 113.9 241.162 115.764 241.162H172.725C174.587 241.162 176.114 242.687 176.114 244.551C176.114 246.413 174.587 247.94 172.725 247.94Z" fill="white"/>
<path d="M172.725 258.855H115.764C113.9 258.855 112.375 257.33 112.375 255.466C112.375 253.602 113.9 252.077 115.764 252.077H172.725C174.587 252.077 176.114 253.602 176.114 255.466C176.114 257.33 174.587 258.855 172.725 258.855Z" fill="white"/>
<path d="M126.4 255.767C126.4 256.425 125.866 256.958 125.207 256.958C124.548 256.958 124.013 256.425 124.013 255.767C124.013 255.107 124.548 254.573 125.207 254.573C125.866 254.573 126.4 255.107 126.4 255.767Z" fill="#80B2FF"/>
<path d="M130.49 255.767C130.49 256.425 129.955 256.958 129.296 256.958C128.637 256.958 128.103 256.425 128.103 255.767C128.103 255.107 128.637 254.573 129.296 254.573C129.955 254.573 130.49 255.107 130.49 255.767Z" fill="#80B2FF"/>
<path d="M134.582 255.767C134.582 256.425 134.048 256.958 133.389 256.958C132.73 256.958 132.195 256.425 132.195 255.767C132.195 255.107 132.73 254.573 133.389 254.573C134.048 254.573 134.582 255.107 134.582 255.767Z" fill="#80B2FF"/>
<path d="M138.671 255.767C138.671 256.425 138.137 256.958 137.478 256.958C136.819 256.958 136.285 256.425 136.285 255.767C136.285 255.107 136.819 254.573 137.478 254.573C138.137 254.573 138.671 255.107 138.671 255.767Z" fill="#80B2FF"/>
<path d="M142.764 255.767C142.764 256.425 142.23 256.958 141.571 256.958C140.912 256.958 140.377 256.425 140.377 255.767C140.377 255.107 140.912 254.573 141.571 254.573C142.23 254.573 142.764 255.107 142.764 255.767Z" fill="#80B2FF"/>
<path d="M146.854 255.767C146.854 256.425 146.319 256.958 145.66 256.958C145.001 256.958 144.467 256.425 144.467 255.767C144.467 255.107 145.001 254.573 145.66 254.573C146.319 254.573 146.854 255.107 146.854 255.767Z" fill="#80B2FF"/>
<path d="M150.945 255.767C150.945 256.425 150.41 256.958 149.752 256.958C149.093 256.958 148.558 256.425 148.558 255.767C148.558 255.107 149.093 254.573 149.752 254.573C150.41 254.573 150.945 255.107 150.945 255.767Z" fill="#80B2FF"/>
<path d="M155.035 255.767C155.035 256.425 154.501 256.958 153.842 256.958C153.183 256.958 152.649 256.425 152.649 255.767C152.649 255.107 153.183 254.573 153.842 254.573C154.501 254.573 155.035 255.107 155.035 255.767Z" fill="#80B2FF"/>
<path d="M159.127 255.767C159.127 256.425 158.592 256.958 157.933 256.958C157.274 256.958 156.74 256.425 156.74 255.767C156.74 255.107 157.274 254.573 157.933 254.573C158.592 254.573 159.127 255.107 159.127 255.767Z" fill="#80B2FF"/>
<path d="M157.356 218.584C157.356 225.817 151.494 231.679 144.263 231.679C137.031 231.679 131.169 225.817 131.169 218.584C131.169 211.354 137.031 205.492 144.263 205.492C151.494 205.492 157.356 211.354 157.356 218.584Z" fill="white"/>
<path d="M144.282 218.059C145.56 218.059 146.741 217.435 147.495 216.485C148.052 215.795 148.38 214.911 148.38 213.927C148.38 211.665 146.544 209.797 144.282 209.797C141.988 209.797 140.152 211.665 140.152 213.927C140.152 214.911 140.479 215.795 141.037 216.485C141.791 217.435 142.971 218.059 144.282 218.059Z" fill="#005CEA"/>
<path d="M151.539 225.418C151.539 228.025 136.983 228.025 136.983 225.418L136.988 222.381C137.563 218.228 150.356 218.053 151.541 222.381L151.539 225.418Z" fill="#005CEA"/>
<path d="M117.482 256.051V256.745C117.482 256.871 117.375 256.959 117.25 256.959C117.125 256.959 117.037 256.871 117.037 256.745V256.051C116.912 255.981 116.823 255.855 116.823 255.694C116.823 255.464 117.019 255.267 117.25 255.267C117.482 255.267 117.677 255.464 117.677 255.694C117.677 255.855 117.588 255.981 117.482 256.051ZM116.397 254.659C116.397 254.197 116.681 253.779 117.255 253.779C117.828 253.779 118.122 254.172 118.122 254.659V254.84H116.397V254.659ZM118.588 254.84V254.659C118.588 253.924 117.99 253.326 117.255 253.326C116.519 253.326 115.921 253.924 115.921 254.659V254.84H115.719V257.245C115.719 257.659 118.799 257.659 118.799 257.245V254.84H118.588Z" fill="#5896FA"/>
<path d="M117.259 244.303C117.529 244.303 117.778 244.173 117.937 243.972C118.055 243.827 118.124 243.641 118.124 243.432C118.124 242.956 117.736 242.56 117.259 242.56C116.775 242.56 116.388 242.956 116.388 243.432C116.388 243.641 116.457 243.827 116.574 243.972C116.734 244.173 116.982 244.303 117.259 244.303Z" fill="#5896FA"/>
<path d="M118.789 245.858C118.789 246.407 115.702 246.407 115.702 245.858L115.718 245.218C115.84 244.34 118.539 244.304 118.79 245.218L118.789 245.858Z" fill="#5896FA"/>
<path d="M137.211 245.544H124.729C124.182 245.544 123.734 245.098 123.734 244.551C123.734 244.003 124.182 243.556 124.729 243.556H137.211C137.758 243.556 138.206 244.003 138.206 244.551C138.206 245.098 137.758 245.544 137.211 245.544Z" fill="#80B2FF"/>
<path d="M153.673 245.544H141.191C140.644 245.544 140.196 245.098 140.196 244.551C140.196 244.003 140.644 243.556 141.191 243.556H153.673C154.22 243.556 154.668 244.003 154.668 244.551C154.668 245.098 154.22 245.544 153.673 245.544Z" fill="#80B2FF"/>
<path d="M148.418 269.43H137.107C135.503 269.43 134.203 268.129 134.203 266.528C134.203 264.924 135.503 263.623 137.107 263.623H148.418C150.022 263.623 151.322 264.924 151.322 266.528C151.322 268.129 150.022 269.43 148.418 269.43Z" fill="#1251B3"/>
<path d="M0.36377 151.222C0.364203 151.127 0.364418 151.085 0.364418 151.075C0.364201 151.093 0.36377 151.222 0.36377 151.222Z" fill="#D9FFFF"/>
<path d="M0.36377 151.222C0.364203 151.127 0.364418 151.085 0.364418 151.075C0.364201 151.093 0.36377 151.222 0.36377 151.222Z" fill="#D9FFFF"/>
<path d="M56.0429 151.47C56.0429 151.47 56.0433 151.341 56.0436 151.324C56.0436 151.333 56.0433 151.375 56.0429 151.47Z" fill="#D9FFFF"/>
<path d="M56.0429 151.47C56.0429 151.47 56.0433 151.341 56.0436 151.324C56.0436 151.333 56.0433 151.375 56.0429 151.47Z" fill="#D9FFFF"/>
<path d="M28.3179 136.177C21.8294 143.127 11.476 148.823 0.396722 151.25C0.393518 151.99 0.375153 156.089 0.290801 174.985C0.178048 200.192 24.1669 212.509 27.8912 214.399C31.4999 212.738 55.7916 200.44 55.9041 175.234C55.9885 156.338 56.0069 152.238 56.0103 151.498C44.9534 148.973 34.7439 143.185 28.3179 136.177Z" fill="white"/>
<path d="M28.25 140.731C21.8961 146.56 13.0935 151.141 3.41382 153.638L3.31836 174.995C3.27458 184.767 7.15688 193.608 14.8574 201.272C19.9172 206.307 25.2371 209.431 27.9363 210.834C28.0525 210.777 28.18 210.708 28.3053 210.644V140.781C28.287 140.765 28.2678 140.748 28.25 140.731Z" fill="#296ACC"/>
<path d="M28.3074 140.782V210.645C31.1145 209.184 36.2163 206.167 41.1025 201.39C48.8709 193.794 52.8322 184.989 52.8756 175.217L52.9713 153.86C43.3418 151.284 34.6042 146.643 28.3074 140.782Z" fill="#2E77E6"/>
<path d="M29.4434 180.349V185.04C29.4434 185.663 28.9353 186.182 28.3107 186.182C27.6758 186.182 27.1676 185.663 27.1676 185.04V180.339C26.2043 179.905 25.5269 178.931 25.5269 177.809C25.5269 176.274 26.7757 175.035 28.3107 175.035C29.8455 175.035 31.0843 176.274 31.0843 177.809C31.0843 178.941 30.4172 179.915 29.4434 180.349ZM17.0585 171.563V188.108C17.0585 189.951 39.5527 189.951 39.5527 188.108V171.563H17.0585Z" fill="white"/>
<path d="M37.5853 170.385H35.3083V169.271C35.3083 165.411 32.1676 162.27 28.3082 162.27C24.4479 162.27 21.3075 165.411 21.3075 169.271V170.385H19.0304V169.271C19.0304 164.155 23.1922 159.993 28.3082 159.993C33.4233 159.993 37.5853 164.155 37.5853 169.271V170.385Z" fill="white"/>
<path d="M194.814 50.7193H154.182V0H194.814V50.7193Z" fill="#296ACC"/>
<path d="M200.085 55.9569H159.451V5.23743H200.085V55.9569Z" fill="white"/>
<path d="M200.085 55.9569H159.451V5.23743H200.085V55.9569Z" stroke="#5896FA" stroke-width="6.341" stroke-miterlimit="10"/>
<path d="M206.775 61.0989H166.143V10.3794H206.775V61.0989Z" fill="white"/>
<path d="M206.775 61.0989H166.143V10.3794H206.775V61.0989Z" stroke="#5896FA" stroke-width="6.341" stroke-miterlimit="10"/>
<path d="M211.644 66.3362H171.012V15.6168H211.644V66.3362Z" fill="#5896FA"/>
<path d="M205.324 27.2432H184.307V23.9446H205.324V27.2432Z" fill="#005CEA"/>
<path d="M205.322 34.9927H178.088V31.694H205.322V34.9927Z" fill="#005CEA"/>
<path d="M205.322 42.7423H178.088V39.4436H205.322V42.7423Z" fill="#005CEA"/>
<path d="M205.322 50.4923H178.088V47.1936H205.322V50.4923Z" fill="#005CEA"/>
<path d="M205.322 58.2429H178.088V54.9443H205.322V58.2429Z" fill="#005CEA"/>
<path d="M79.3908 55.2063C79.3908 63.1323 72.9654 69.5577 65.0393 69.5577C57.1133 69.5577 50.6879 63.1323 50.6879 55.2063C50.6879 47.2802 57.1133 40.8548 65.0393 40.8548C72.9654 40.8548 79.3908 47.2802 79.3908 55.2063Z" fill="white"/>
<path d="M57.6336 67.4958C50.8398 63.3988 48.657 54.5847 52.7539 47.7909C56.8444 41.0077 65.6585 38.8253 72.4523 42.9222C79.2355 47.0127 81.4179 55.8264 77.3276 62.6098C73.2307 69.4034 64.4168 71.586 57.6336 67.4958ZM87.6817 68.8535C89.5426 65.7675 90.706 62.4328 91.1986 59.067L92.2678 59.2238L94.3788 59.5341L94.4061 59.5364C94.9756 55.6857 94.7819 51.7912 93.8515 48.0702L90.7111 48.8481C89.8684 45.4816 88.3841 42.2739 86.2682 39.4469L88.8714 37.512C86.6443 34.4883 83.7855 31.8455 80.3728 29.7875L78.696 32.5681C75.5992 30.7004 72.2753 29.5437 68.9098 29.051L69.379 25.8435C65.5283 25.2736 61.6274 25.4781 57.913 26.3981L58.6907 29.5385C55.3241 30.3812 52.1166 31.8653 49.2893 33.9812L47.3545 31.378C44.3311 33.6051 41.6878 36.4639 39.6297 39.8766L42.4107 41.5536C40.5432 44.6504 39.386 47.9741 38.8933 51.3398L36.6244 51.0056L35.6965 50.8771L35.6861 50.8709C35.1163 54.7211 35.3207 58.6222 36.2405 62.3367L39.3813 61.5589C40.2237 64.9255 41.7184 68.1394 43.8342 70.9665L41.2311 72.9015C43.4584 75.9249 46.3067 78.5618 49.7191 80.6197L51.3961 77.8391C54.4928 79.7064 57.8273 80.87 61.1928 81.3627L60.8245 83.855L60.7237 84.5699C64.5744 85.1397 68.4646 84.9289 72.179 84.009L71.4017 80.8683C74.7681 80.0259 77.982 78.5312 80.8196 76.4216L82.7543 79.0248C85.7675 76.7913 88.4041 73.943 90.4623 70.5305L87.6817 68.8535Z" fill="#005CEA"/>
<path d="M26.5353 80.9314C23.052 83.2364 18.3672 82.2827 16.0621 78.7993C13.7605 75.3212 14.7144 70.6366 18.1978 68.3316C21.6759 66.03 26.3605 66.9837 28.6619 70.4618C30.9669 73.9451 30.0134 78.63 26.5353 80.9314ZM33.9709 66.9487C32.9238 65.3663 31.6007 64.0596 30.1116 63.0649L30.4277 62.5919L31.0523 61.658L31.0596 61.6454C29.3569 60.5047 27.4611 59.7167 25.4813 59.3184L25.1417 60.9875C23.3503 60.6277 21.4896 60.6087 19.667 60.976L19.3352 59.3009C17.394 59.6767 15.4911 60.4391 13.7413 61.5968L14.6847 63.0226C13.0968 64.0733 11.7957 65.3926 10.8007 66.8818L9.3815 65.9339C8.2403 67.6363 7.45615 69.5375 7.05425 71.512L8.72356 71.8517C8.36352 73.6432 8.34451 75.5038 8.71202 77.3265L7.03674 77.6583C7.4128 79.5995 8.17495 81.5024 9.33281 83.2522L10.7587 82.3087C11.8093 83.8965 13.1284 85.1978 14.6177 86.1927L13.9461 87.1962L13.6753 87.6083L13.67 87.612C15.3724 88.7527 17.2736 89.5371 19.248 89.9392L19.5878 88.2697C21.379 88.6297 23.2452 88.6453 25.0676 88.2778L25.3997 89.9531C27.3408 89.577 29.2382 88.8185 30.9882 87.6607L30.0446 86.2348C31.6325 85.1841 32.9392 83.8612 33.9341 82.3722L35.036 83.1106L35.3531 83.3201C36.4943 81.6175 37.2732 79.7199 37.6751 77.7457L36.0057 77.4057C36.3658 75.6144 36.3812 73.7483 36.0192 71.9222L37.6943 71.5901C37.3131 69.6526 36.5544 67.755 35.3965 66.0054L33.9709 66.9487Z" fill="#1251B3"/>
<path d="M268.686 96.1135H233.797C233.062 96.1135 232.467 95.5182 232.467 94.7836V74.9877C232.467 74.2531 233.062 73.6577 233.797 73.6577H268.686C269.421 73.6577 270.017 74.2531 270.017 74.9877V94.7836C270.017 95.5182 269.421 96.1135 268.686 96.1135Z" fill="#005CEA"/>
<path d="M270.017 81.7728H232.467V77.898H270.017V81.7728Z" fill="#5896FA"/>
<path d="M241.068 91.8049H235.548C235.195 91.8049 234.911 92.0893 234.911 92.4402C234.911 92.7913 235.195 93.0757 235.548 93.0757H241.068C241.418 93.0757 241.704 92.7913 241.704 92.4402C241.704 92.0893 241.418 91.8049 241.068 91.8049Z" fill="#D1F5FF"/>
<path d="M249.559 91.8049H244.037C243.687 91.8049 243.403 92.0893 243.403 92.4402C243.403 92.7913 243.687 93.0757 244.037 93.0757H249.559C249.91 93.0757 250.194 92.7913 250.194 92.4402C250.194 92.0893 249.91 91.8049 249.559 91.8049Z" fill="#D1F5FF"/>
<path d="M258.049 91.8049H252.527C252.177 91.8049 251.893 92.0893 251.893 92.4402C251.893 92.7913 252.177 93.0757 252.527 93.0757H258.049C258.399 93.0757 258.683 92.7913 258.683 92.4402C258.683 92.0893 258.399 91.8049 258.049 91.8049Z" fill="#D1F5FF"/>
<path d="M266.539 91.8049H261.018C260.668 91.8049 260.382 92.0893 260.382 92.4402C260.382 92.7913 260.668 93.0757 261.018 93.0757H266.539C266.891 93.0757 267.175 92.7913 267.175 92.4402C267.175 92.0893 266.891 91.8049 266.539 91.8049Z" fill="#D1F5FF"/>
<path d="M235.294 74.7966C234.905 74.7966 234.592 75.1105 234.592 75.4979V75.7444C234.592 76.1315 234.905 76.4456 235.294 76.4456C235.681 76.4456 235.995 76.1315 235.995 75.7444V75.4979C235.995 75.1105 235.681 74.7966 235.294 74.7966Z" fill="#D1F5FF"/>
<path d="M236.805 75.6211C236.805 76.0764 237.174 76.4456 237.629 76.4456H240.553C241.008 76.4456 241.377 76.0764 241.377 75.6211C241.377 75.1659 241.008 74.7966 240.553 74.7966H237.629C237.174 74.7966 236.805 75.1659 236.805 75.6211Z" fill="#D1F5FF"/>
<path d="M236.421 83.8569H240.194C240.799 83.8569 241.29 84.3472 241.29 84.9522V88.206C241.29 88.811 240.799 89.3015 240.194 89.3015H236.421C235.814 89.3015 235.325 88.811 235.325 88.206V84.9522C235.325 84.3472 235.814 83.8569 236.421 83.8569Z" fill="#5896FA"/>
<path d="M254.868 153.313V150.748C254.868 149.583 253.924 148.639 252.76 148.639H230.308C229.144 148.639 228.198 149.583 228.198 150.748V196.091H286.274V153.313H254.868Z" fill="#1251B3"/>
<path d="M288.69 154.872H231.741L228.2 196.092H285.991L288.69 154.872Z" fill="white"/>
<path d="M286.275 196.092H228.2L234.361 155.385C234.543 154.194 235.566 153.314 236.77 153.314H289.918C291.408 153.314 292.549 154.641 292.327 156.114L286.275 196.092Z" fill="#3383FF"/>
<path d="M305.66 154.872C305.66 162.221 299.704 168.179 292.353 168.179C285.005 168.179 279.047 162.221 279.047 154.872C279.047 147.524 285.005 141.566 292.353 141.566C299.704 141.566 305.66 147.524 305.66 154.872Z" fill="#005CEA"/>
<path d="M292.355 142.052C285.285 142.052 279.536 147.803 279.536 154.872C279.536 161.941 285.285 167.693 292.355 167.693C299.426 167.693 305.174 161.941 305.174 154.872C305.174 147.803 299.426 142.052 292.355 142.052ZM292.355 168.665C284.749 168.665 278.56 162.478 278.56 154.872C278.56 147.267 284.749 141.08 292.355 141.08C299.962 141.08 306.15 147.267 306.15 154.872C306.15 162.478 299.962 168.665 292.355 168.665Z" fill="white"/>
<path d="M293.003 157.466V160.137C293.003 160.493 292.713 160.788 292.358 160.788C291.995 160.788 291.707 160.493 291.707 160.137V157.46C291.158 157.213 290.771 156.659 290.771 156.02C290.771 155.146 291.482 154.44 292.358 154.44C293.231 154.44 293.936 155.146 293.936 156.02C293.936 156.665 293.556 157.219 293.003 157.466ZM285.949 152.463V161.885C285.949 162.934 298.758 162.934 298.758 161.885V152.463H285.949Z" fill="white"/>
<path d="M297.637 151.791H296.34V151.157C296.34 148.959 294.553 147.17 292.353 147.17C290.156 147.17 288.366 148.959 288.366 151.157V151.791H287.07V151.157C287.07 148.244 289.441 145.873 292.353 145.873C295.268 145.873 297.637 148.244 297.637 151.157V151.791Z" fill="white"/>
<path d="M284.536 130.347C284.536 131.819 283.342 133.012 281.871 133.012C280.399 133.012 279.205 131.819 279.205 130.347C279.205 128.875 280.399 127.682 281.871 127.682C283.342 127.682 284.536 128.875 284.536 130.347Z" fill="white"/>
<path d="M226.86 133.29C226.371 133.29 225.976 132.895 225.976 132.407V122.957C225.976 122.47 226.371 122.074 226.86 122.074C227.347 122.074 227.742 122.47 227.742 122.957V132.407C227.742 132.895 227.347 133.29 226.86 133.29Z" fill="white"/>
<path d="M221.253 127.683C221.253 127.195 221.648 126.8 222.135 126.8H231.584C232.071 126.8 232.466 127.195 232.466 127.683C232.466 128.17 232.071 128.566 231.584 128.566H222.135C221.648 128.566 221.253 128.17 221.253 127.683Z" fill="white"/>
<path d="M217.252 257.756C216.765 257.756 216.37 257.361 216.37 256.874V247.425C216.37 246.938 216.765 246.541 217.252 246.541C217.741 246.541 218.136 246.938 218.136 247.425V256.874C218.136 257.361 217.741 257.756 217.252 257.756Z" fill="white"/>
<path d="M211.643 252.15C211.643 251.663 212.038 251.268 212.527 251.268H221.976C222.463 251.268 222.858 251.663 222.858 252.15C222.858 252.639 222.463 253.034 221.976 253.034H212.527C212.038 253.034 211.643 252.639 211.643 252.15Z" fill="white"/>
<path d="M141.424 187.22C141.424 188.781 140.159 190.045 138.599 190.045C137.038 190.045 135.773 188.781 135.773 187.22C135.773 185.661 137.038 184.395 138.599 184.395C140.159 184.395 141.424 185.661 141.424 187.22Z" stroke="white" stroke-width="4.226" stroke-miterlimit="10"/>
</svg>
